<svg xmlns="http://www.w3.org/2000/svg" viewBox="0 0 500 500"><g id="freepik--background-simple--inject-4"><path d="M47.29,386.07q2.52,4.14,5.25,8.12c24.33,35.25,64.82,59.38,104.17,70.31a226.66,226.66,0,0,0,52.61,7.94c115.9,4.16,158.48-90.09,195.82-114.39s94.65-65.8,87.46-153c-5.46-66.3-43.7-129.68-113.53-158.53a201.15,201.15,0,0,0-24.24-8.25,234.62,234.62,0,0,0-51.19-7.76C250.84,28.2,208,40.76,166,72.36c-9.75,7.35-19.44,15.64-32.1,16.55-9.19.66-17.91-2.6-8.3-11.36,11.3-10.3-1.73-30.56-30.41-16.49-47.9,23.51-67.6,74.23-76.88,125.81C7,250.17,12.47,328.9,47.29,386.07Z" style="fill:#92E3A9"></path><path d="M47.29,386.07q2.52,4.14,5.25,8.12c24.33,35.25,64.82,59.38,104.17,70.31a226.66,226.66,0,0,0,52.61,7.94c115.9,4.16,158.48-90.09,195.82-114.39s94.65-65.8,87.46-153c-5.46-66.3-43.7-129.68-113.53-158.53a201.15,201.15,0,0,0-24.24-8.25,234.62,234.62,0,0,0-51.19-7.76C250.84,28.2,208,40.76,166,72.36c-9.75,7.35-19.44,15.64-32.1,16.55-9.19.66-17.91-2.6-8.3-11.36,11.3-10.3-1.73-30.56-30.41-16.49-47.9,23.51-67.6,74.23-76.88,125.81C7,250.17,12.47,328.9,47.29,386.07Z" style="fill:#fff;opacity:0.7000000000000001"></path></g><g id="freepik--Clouds--inject-4"><path d="M492.58,86.74H383.11l.41-.75c.14-.25,3.5-6.16,10.26-6.83a12.9,12.9,0,0,1,7.76,1.74c1.65.82,2.95,1.48,4.64.91,1.47-.49,2.63-2.11,3.85-3.83,1.88-2.65,4-5.65,8.1-6.06,3.13-.31,5.37,1.29,7.36,2.7,2.45,1.75,4.22,3,6.85.71A41.37,41.37,0,0,0,437,69.9c4.49-5.85,10.07-13.13,17.55-11.13,9.35,2.49,14.55,15.57,15.37,17.79h0c1.2,0,2.92-1.29,4.73-2.65,2.82-2.11,6-4.51,8.9-3.27,4.77,2,8.68,14.91,8.84,15.45Zm-107.7-1H491.22c-.85-2.64-4.29-12.56-8.07-14.18-2.36-1-5.31,1.2-7.91,3.15-2.24,1.68-4.18,3.13-5.81,2.8l-.28-.05-.1-.27c-.05-.15-5.29-14.92-14.79-17.46-6.83-1.81-12.19,5.17-16.5,10.78A41.05,41.05,0,0,1,433,76.08c-3.22,2.82-5.69,1.06-8.08-.64-1.94-1.38-3.94-2.8-6.68-2.53-3.64.37-5.54,3-7.39,5.65-1.32,1.85-2.56,3.61-4.34,4.2-2.08.7-3.7-.11-5.41-1a12,12,0,0,0-7.21-1.64C389,80.64,386,84.17,384.88,85.74Z" style="fill:#263238"></path><path d="M129.7,49.22H55.32l.41-.74a9.72,9.72,0,0,1,7.05-4.7A8.86,8.86,0,0,1,68.11,45c1.12.56,1.93,1,3,.61s1.7-1.39,2.51-2.53c1.29-1.82,2.75-3.87,5.59-4.16,2.17-.21,3.71.89,5.07,1.86,1.81,1.28,2.82,1.89,4.43.48a27.13,27.13,0,0,0,3.1-3.64c3.06-4,6.86-8.94,12-7.57,6.25,1.67,9.77,10.21,10.44,12a8.21,8.21,0,0,0,3-1.75c1.94-1.45,4.14-3.1,6.17-2.23,3.29,1.41,6,10.16,6.06,10.54Zm-72.59-1h71.24c-.9-2.76-3.11-8.32-5.29-9.26-1.51-.64-3.46.82-5.18,2.11-1.54,1.16-2.87,2.15-4,1.92l-.28-.06-.1-.27c0-.1-3.54-10-9.87-11.67-4.5-1.2-8.09,3.46-11,7.21A28.33,28.33,0,0,1,89.37,42c-2.27,2-4,.76-5.66-.43-1.28-.91-2.6-1.85-4.39-1.67-2.38.23-3.65,2-4.87,3.74-.91,1.28-1.76,2.48-3,2.9-1.47.49-2.58-.07-3.77-.67a7.93,7.93,0,0,0-4.78-1.09A8.56,8.56,0,0,0,57.11,48.22Z" style="fill:#263238"></path></g><g id="freepik--Castle--inject-4"><rect x="365.05" y="109.93" width="1" height="28.64" style="fill:#263238"></rect><polygon points="366.05 102.69 365.05 102.69 365.05 29.55 351.73 29.55 351.73 42.09 335.75 41.98 335.75 29.55 322.44 29.55 322.44 42.09 306.46 41.98 306.46 29.55 293.14 29.55 293.14 42.09 277.16 41.98 277.16 29.55 263.85 29.55 263.85 42.09 247.87 41.98 247.87 29.55 234.55 29.55 234.55 80.31 233.55 80.31 233.55 28.55 248.87 28.55 248.87 40.99 262.85 41.09 262.85 28.55 278.16 28.55 278.16 40.99 292.14 41.09 292.14 28.55 307.46 28.55 307.46 40.99 321.44 41.09 321.44 28.55 336.75 28.55 336.75 40.99 350.73 41.09 350.73 28.55 366.05 28.55 366.05 102.69" style="fill:#263238"></polygon><rect x="233.55" y="88.21" width="1" height="45.19" style="fill:#263238"></rect><rect x="343.81" y="58.69" width="17.86" height="1" style="fill:#263238"></rect><rect x="237.41" y="58.69" width="97.19" height="1" style="fill:#263238"></rect><path d="M302.91,105.14h-10.2V71.35h10.2Zm-9.2-1h8.2V72.35h-8.2Z" style="fill:#263238"></path><path d="M400.7,476.27H242V261.67a79.34,79.34,0,1,1,158.68,0v71.4h-1v-71.4a78.34,78.34,0,1,0-156.68,0v213.6H399.7v-135h1Z" style="fill:#263238"></path><path d="M400.69,273.44H242V261.17H400.69Zm-157.67-1H399.69V262.17H243Z" style="fill:#263238"></path><path d="M400.69,436.2H242V423.93H400.69ZM243,435.2H399.69V424.93H243Z" style="fill:#263238"></path><rect x="258.15" y="213.97" width="1" height="262.14" style="fill:#263238"></rect><rect x="276.17" y="197.61" width="1" height="278.5" style="fill:#263238"></rect><rect x="294.2" y="355.45" width="1" height="120.67" style="fill:#263238"></rect><rect x="294.2" y="187.73" width="1" height="158.5" style="fill:#263238"></rect><rect x="312.23" y="183.71" width="1" height="292.4" style="fill:#263238"></rect><rect x="330.25" y="319.24" width="1" height="156.87" style="fill:#263238"></rect><rect x="330.25" y="183.71" width="1" height="126.97" style="fill:#263238"></rect><rect x="348.28" y="381.12" width="1" height="94.99" style="fill:#263238"></rect><rect x="348.28" y="188.36" width="1" height="183.54" style="fill:#263238"></rect><rect x="366.3" y="452.2" width="1" height="23.91" style="fill:#263238"></rect><rect x="366.3" y="236.31" width="1" height="207.34" style="fill:#263238"></rect><rect x="366.3" y="197.61" width="1" height="31.46" style="fill:#263238"></rect><rect x="384.33" y="317.27" width="1" height="158.84" style="fill:#263238"></rect><rect x="384.33" y="214.9" width="1" height="95.13" style="fill:#263238"></rect><polygon points="37.77 275.09 11.04 275.09 11.04 274.09 36.77 274.09 36.77 80.29 169.25 80.29 169.25 139.19 192.42 139.19 192.42 140.19 168.25 140.19 168.25 81.29 37.77 81.29 37.77 275.09" style="fill:#263238"></polygon><rect x="200.97" y="139.19" width="256.7" height="1" style="fill:#263238"></rect><rect x="462.29" y="139.19" width="6.41" height="1" style="fill:#263238"></rect><path d="M52.93,139.93H44.87v-29.3h8.06Zm-7.06-1h6.06v-27.3H45.87Z" style="fill:#263238"></path><path d="M89.32,139.93H81.25v-29.3h8.07Zm-7.07-1h6.07v-27.3H82.25Z" style="fill:#263238"></path><path d="M125.7,139.93h-8.07v-29.3h8.07Zm-7.07-1h6.07v-27.3h-6.07Z" style="fill:#263238"></path><path d="M162.08,139.93H154v-29.3h8.07Zm-7.07-1h6.07v-27.3H155Z" style="fill:#263238"></path><rect x="37.65" y="98.19" width="129.93" height="1" style="fill:#263238"></rect><polygon points="37.77 80.79 36.77 80.79 36.77 67.75 52.08 67.75 52.08 80.68 51.08 80.68 51.08 68.75 37.77 68.75 37.77 80.79" style="fill:#263238"></polygon><polygon points="67.06 80.79 66.06 80.79 66.06 67.75 81.38 67.75 81.38 80.68 80.38 80.68 80.38 68.75 67.06 68.75 67.06 80.79" style="fill:#263238"></polygon><polygon points="96.36 80.79 95.36 80.79 95.36 67.75 110.67 67.75 110.67 80.68 109.67 80.68 109.67 68.75 96.36 68.75 96.36 80.79" style="fill:#263238"></polygon><polygon points="125.65 80.79 124.65 80.79 124.65 67.75 139.97 67.75 139.97 80.68 138.97 80.68 138.97 68.75 125.65 68.75 125.65 80.79" style="fill:#263238"></polygon><polygon points="154.95 80.79 153.95 80.79 153.95 67.75 169.26 67.75 169.26 80.68 168.26 80.68 168.26 68.75 154.95 68.75 154.95 80.79" style="fill:#263238"></polygon><path d="M466.33,257.93H447.45V223.74h18.88Zm-17.88-1h16.88V224.74H448.45Z" style="fill:#263238"></path><path d="M201.49,179.66H173.77V163.5h27.72Zm-26.72-1h25.72V164.5H174.77Z" style="fill:#263238"></path><path d="M237.6,181.83H220.71V169.27H237.6Zm-15.89-1H236.6V170.27H221.71Z" style="fill:#263238"></path><path d="M218.1,194.83H206.27v-6.06H218.1Zm-10.83-1h9.83v-4.06h-9.83Z" style="fill:#263238"></path><path d="M254.93,186.89H244.54v-8.95h10.39Zm-9.39-1h8.39v-6.95h-8.39Z" style="fill:#263238"></path><path d="M269.38,164.5H256.1v-6.78h13.28Zm-12.28-1h11.28v-4.78H257.1Z" style="fill:#263238"></path><path d="M433.32,314.72H412.1V303.61h21.22Zm-20.22-1h19.22v-9.11H413.1Z" style="fill:#263238"></path><path d="M435.49,342.16H422.93V331.78h12.56Zm-11.56-1h10.56v-8.38H423.93Z" style="fill:#263238"></path><path d="M478.82,331.33H447.49V311.55h31.33Zm-30.33-1h29.33V312.55H448.49Z" style="fill:#263238"></path><path d="M468,362.39H454v-8.95h14Zm-13-1h12v-6.95H455Z" style="fill:#263238"></path><path d="M436.21,387.66H420V375.11h16.17Zm-15.17-1h14.17V376.11H421Z" style="fill:#263238"></path><path d="M187.77,349.39h-20.5v-8.23h20.5Zm-19.5-1h18.5v-6.23h-18.5Z" style="fill:#263238"></path><path d="M206.54,348.66H195.43v-7.5h11.11Zm-10.11-1h9.11v-5.5h-9.11Z" style="fill:#263238"></path><path d="M73.65,353.72H37.26V336.83H73.65Zm-35.39-1H72.65V337.83H38.26Z" style="fill:#263238"></path><path d="M115.54,341.44H96.49v-9.66h19.05Zm-18.05-1h17.05v-7.66H97.49Z" style="fill:#263238"></path><path d="M70,318.33H59.65V313H70Zm-9.39-1H69V314H60.65Z" style="fill:#263238"></path><path d="M117.71,316.89H91.43V304.33h26.28Zm-25.28-1h24.28V305.33H92.43Z" style="fill:#263238"></path><path d="M63.54,252.61H43.76V240.77H63.54Zm-18.78-1H62.54v-9.84H44.76Z" style="fill:#263238"></path><path d="M59.21,184H50.27v-3.89h8.94Zm-7.94-1h6.94v-1.89H51.27Z" style="fill:#263238"></path><path d="M101.1,173.16H86.38v-6H101.1Zm-13.72-1H100.1v-4H87.38Z" style="fill:#263238"></path><path d="M49.82,402.83H34.38V397.5H49.82Zm-14.44-1H48.82V398.5H35.38Z" style="fill:#263238"></path><path d="M441.27,210.72H420V197.44h21.23Zm-20.23-1h19.23V198.44H421Z" style="fill:#263238"></path><path d="M471.6,199.89H459.77v-8.95H471.6Zm-10.83-1h9.83v-6.95h-9.83Z" style="fill:#263238"></path></g><g id="freepik--Floor--inject-4"><rect x="3.16" y="475.61" width="494.52" height="1" style="fill:#263238"></rect></g><g id="freepik--Plant--inject-4"><path d="M429.72,440a13.19,13.19,0,0,0,3.89.44s-.59-1.81-.64-1.92c-.61-1.27-2.53-3.37-4.09-3.16a1.87,1.87,0,0,0-1.49,2.34A3.85,3.85,0,0,0,429.72,440Z" style="fill:#263238"></path><path d="M430.67,448a12.87,12.87,0,0,0,3.83-.6,34.4,34.4,0,0,0,1.5,4.14c.34.78.71,1.56,1.08,2.34-.22-.33-.43-.62-.46-.66-.92-1.06-3.32-2.58-4.77-2a1.87,1.87,0,0,0-.83,2.65,3.91,3.91,0,0,0,2.86,1.6,12.09,12.09,0,0,0,3.73-.57c.15.3.29.6.44.89.71,1.43,1.43,2.84,2.09,4.25.24.5.45,1,.66,1.5-.2-.3-.37-.54-.4-.58-.92-1.06-3.32-2.57-4.77-2a1.87,1.87,0,0,0-.82,2.65,3.88,3.88,0,0,0,2.85,1.61,11.89,11.89,0,0,0,3.63-.55c.2.52.41,1,.58,1.54s.24.68.34,1,.19.7.29,1.05c.16.67.33,1.37.47,2,.1.46.19.89.28,1.34-.23-.5-.69-1.47-.74-1.54-.75-1.19-2.89-3.05-4.42-2.66a1.87,1.87,0,0,0-1.22,2.49,3.94,3.94,0,0,0,2.58,2,12.75,12.75,0,0,0,3.86,0c.15.73.29,1.44.4,2.12.27,1.49.46,2.82.62,3.95h1c-.18-1.17-.42-2.56-.73-4.12-.15-.75-.32-1.54-.5-2.35a19.89,19.89,0,0,0,2.15-1,13.94,13.94,0,0,0,3.14,2c-.28.69-.56,1.36-.83,2a12.7,12.7,0,0,1-.76,1.45l1.09-.17c.41-.92.06.24.53-.92.29-.7.58-1.45.87-2.23a13.06,13.06,0,0,0,3.85.3,3.9,3.9,0,0,0,2.73-1.82,1.87,1.87,0,0,0-1-2.58c-1.49-.5-3.77,1.19-4.61,2.33-.05.06-.5.85-.78,1.34.12-.31.24-.62.36-.95.24-.65.45-1.3.69-2,.11-.34.21-.69.31-1s.19-.73.28-1.09c.21-.85.37-1.73.52-2.61a12.28,12.28,0,0,0,3.65.84,3.89,3.89,0,0,0,3-1.39,1.86,1.86,0,0,0-.63-2.7c-1.4-.72-3.91.61-4.9,1.6-.06.06-.7.85-1,1.29.08-.53.17-1.06.24-1.6.19-1.56.34-3.15.49-4.73l.15-1.45a12.88,12.88,0,0,0,3.78.89,3.93,3.93,0,0,0,3-1.39,1.86,1.86,0,0,0-.63-2.7c-1.4-.73-3.91.6-4.9,1.6-.08.07-1,1.21-1.21,1.51.11-1.06.24-2.12.4-3.16a32.28,32.28,0,0,1,.91-4.16,13.07,13.07,0,0,0,3.79.9,3.91,3.91,0,0,0,3-1.39,1.86,1.86,0,0,0-.62-2.71c-1.4-.72-3.91.61-4.91,1.61-.08.07-1.06,1.3-1.22,1.54l.06-.25a24.53,24.53,0,0,1,1.65-3.93c.36-.7.74-1.35,1.13-2a12.45,12.45,0,0,0,3.59,1.26,3.92,3.92,0,0,0,3.11-1.06,1.86,1.86,0,0,0-.33-2.75c-1.31-.87-3.95.18-5.05,1.05l-1,1c.18-.28.35-.57.53-.83.66-1,1.32-1.86,1.92-2.63.34-.43.66-.81,1-1.17a12.64,12.64,0,0,0,3.75-.53,3.91,3.91,0,0,0,2.27-2.37,1.86,1.86,0,0,0-1.56-2.29c-1.56-.17-3.42,2-4,3.26-.05.11-.62,1.93-.59,1.93h0c-.29.34-.61.7-.94,1.11-.61.75-1.3,1.61-2,2.59a33.63,33.63,0,0,0-2.06,3.27,24.56,24.56,0,0,0-1.75,3.95.43.43,0,0,0,0,.05c0-.46,0-1.75,0-1.85-.18-1.4-1.35-4-2.9-4.27a1.87,1.87,0,0,0-2.15,1.75,3.92,3.92,0,0,0,1.5,2.92,12.93,12.93,0,0,0,3.53,1.61,33.86,33.86,0,0,0-1,4.28c-.15.84-.27,1.69-.39,2.55,0-.4,0-.76,0-.81-.18-1.39-1.35-4-2.89-4.26a1.86,1.86,0,0,0-2.15,1.75,3.87,3.87,0,0,0,1.49,2.91A12.17,12.17,0,0,0,453,454.9c0,.33-.09.66-.13,1-.19,1.58-.37,3.16-.59,4.7-.08.55-.18,1.08-.28,1.61,0-.35,0-.65,0-.7-.18-1.39-1.34-4-2.89-4.27a1.87,1.87,0,0,0-2.15,1.76,3.9,3.9,0,0,0,1.49,2.91,11.75,11.75,0,0,0,3.33,1.55c-.12.54-.23,1.09-.37,1.61-.1.35-.17.7-.29,1.05l-.33,1c-.24.65-.48,1.33-.73,1.95-.17.44-.33.86-.5,1.27.08-.54.23-1.6.23-1.69a7.27,7.27,0,0,0-1-3.52,2.93,2.93,0,0,0,0-.41,1.87,1.87,0,0,0-2.28-1.58c-1.52.41-2.48,3.08-2.55,4.48,0,.08.05,1,.09,1.56-.08-.33-.15-.66-.23-1-.16-.67-.34-1.33-.53-2.05-.1-.35-.21-.69-.32-1s-.24-.71-.36-1.07c-.3-.82-.65-1.64-1-2.46a12.38,12.38,0,0,0,3.51-1.31,3.9,3.9,0,0,0,1.7-2.8,1.86,1.86,0,0,0-2-1.91c-1.56.17-2.92,2.67-3.21,4,0,.09-.11,1.1-.15,1.66-.22-.49-.44-1-.68-1.47-.7-1.41-1.46-2.82-2.2-4.22-.23-.43-.45-.86-.67-1.29a12.93,12.93,0,0,0,3.63-1.35,3.86,3.86,0,0,0,1.71-2.79,1.86,1.86,0,0,0-2-1.91c-1.56.17-2.92,2.66-3.21,4,0,.1-.15,1.56-.16,1.93-.5-.95-1-1.9-1.42-2.86a33.47,33.47,0,0,1-1.54-4,13,13,0,0,0,3.67-1.35,3.88,3.88,0,0,0,1.7-2.79,1.86,1.86,0,0,0-2-1.91c-1.56.17-2.92,2.66-3.21,4,0,.11-.16,1.67-.16,2l-.09-.24a24.05,24.05,0,0,1-.79-4.19c-.09-.78-.13-1.53-.15-2.27a12.65,12.65,0,0,0,3.69-.92,3.9,3.9,0,0,0,2-2.6,1.86,1.86,0,0,0-1.79-2.11c-1.58,0-3.2,2.32-3.63,3.66,0,.07-.18.84-.29,1.4,0-.33,0-.67,0-1,0-1.19.08-2.28.15-3.25.05-.55.11-1,.16-1.5a12.53,12.53,0,0,0,2.84-2.52,3.92,3.92,0,0,0,.58-3.23,1.86,1.86,0,0,0-2.56-1.05c-1.4.72-1.77,3.54-1.54,4.93,0,.12.55,1.95.57,1.94l0,0q-.09.66-.18,1.44c-.09,1-.19,2.06-.22,3.26a34.08,34.08,0,0,0,.09,3.86,23.87,23.87,0,0,0,.72,4.26.43.43,0,0,1,0,.05c-.24-.39-1-1.46-1-1.53-.92-1.07-3.32-2.58-4.77-2a1.86,1.86,0,0,0-.83,2.64A3.89,3.89,0,0,0,430.67,448Z" style="fill:#263238"></path><path d="M457.67,440.59s.51-1.84.52-2c.2-1.39-.25-4.19-1.67-4.88a1.86,1.86,0,0,0-2.53,1.13,3.88,3.88,0,0,0,.67,3.2A13.22,13.22,0,0,0,457.67,440.59Z" style="fill:#263238"></path></g><g id="freepik--trojan-horse--inject-4"><polygon points="357.04 160.27 372.65 147.54 375.3 149.7 366.65 168.2 357.04 160.27" style="fill:#92E3A9"></polygon><path d="M366.83,169l-10.58-8.73,16.41-13.38,3.26,2.67Zm-9-8.73,8.65,7.14,8.21-17.57-2-1.66Z" style="fill:#263238"></path><polygon points="251.06 192.23 244.57 186.94 251.06 173.97 260.43 179.5 251.06 192.23" style="fill:#263238"></polygon><path d="M251.15,193l-7.2-5.87,6.9-13.81,10.32,6.08Zm-6-6.14,5.77,4.7,8.73-11.86-8.43-5Z" style="fill:#263238"></path><polygon points="262.6 176.61 252.26 167.48 258.99 157.15 271.49 164.36 262.6 176.61" style="fill:#263238"></polygon><path d="M262.68,177.35l-11.07-9.78,7.22-11.09,13.39,7.72Zm-9.76-10,9.6,8.48,8.24-11.36-11.61-6.69Z" style="fill:#263238"></path><polygon points="274.13 160.27 265.96 148.98 274.37 142.73 285.43 155.23 274.13 160.27" style="fill:#263238"></polygon><path d="M274,160.89l-8.69-12,9.17-6.82,11.81,13.35Zm-7.3-11.81,7.64,10.57,10.3-4.6-10.3-11.64Z" style="fill:#263238"></path><polygon points="289.75 153.78 283.5 135.52 293.12 131.44 302.97 148.02 289.75 153.78" style="fill:#263238"></polygon><path d="M289.45,154.46l-6.57-19.22,10.44-4.43,10.37,17.44Zm-5.32-18.66,5.92,17.31,12.2-5.32-9.34-15.72Z" style="fill:#263238"></path><polygon points="310.18 144.89 307.29 126.63 316.9 125.19 324.35 142.25 319.79 140.57 310.18 144.89" style="fill:#263238"></polygon><path d="M309.78,145.62l-3.06-19.41,10.49-1.57,8.07,18.48-5.47-2Zm-1.91-18.57,2.7,17.12,9.2-4.14,3.66,1.35-6.83-15.64Z" style="fill:#263238"></path><polygon points="330.12 143.93 335.65 127.11 342.86 129.75 342.38 147.3 330.12 143.93" style="fill:#263238"></polygon><path d="M342.86,148l-13.38-3.68,5.85-17.81,8,3Zm-12.1-4.36,11.13,3,.46-16.54L336,127.76Z" style="fill:#263238"></path><polygon points="346.7 148.98 358.24 138.65 364 143.93 357.04 160.27 346.7 148.98" style="fill:#263238"></polygon><path d="M357.19,161.18,346,148.94l12.25-11,6.36,5.83ZM347.41,149l9.47,10.35,6.52-15.3-5.17-4.74Z" style="fill:#263238"></path><polygon points="357.04 160.27 346.7 148.98 319.79 140.57 274.13 160.27 251.06 192.23 306.81 228.28 317.14 186.94 357.04 160.27" style="fill:#92E3A9"></polygon><path d="M307.13,229.08l-56.78-36.71,23.46-32.5L319.76,140,347,148.54l10.82,11.82-40.22,26.89Zm-55.35-37,54.72,35.38,10.21-40.84,39.56-26.46-9.85-10.77-26.6-8.31-45.36,19.58Z" style="fill:#263238"></path><path d="M325.56,172.05s-7.93,9.85-8.42,14.9,7.21,49.5,7.21,49.5h21.39l20.91-68.25L357,160.27h-23.3Z" style="fill:#92E3A9"></path><path d="M346.11,237H323.93l-.07-.42c-.31-1.82-7.69-44.58-7.21-49.63s8-14.58,8.51-15.15l8.3-12h23.75l10,8.26Zm-21.34-1h20.6l20.7-67.58-9.21-7.6H334l-8,11.59c-.08.1-7.85,9.79-8.31,14.63C317.2,191.66,324,231.43,324.77,236Z" style="fill:#263238"></path><path d="M346.11,237H323.93l-.07-.42c0-.14-2.51-14.51-4.54-27.69l-.08-.49,19.64-2.94,8.91-16.29h13l-.2.65Zm-21.34-1h20.6l14-45.83h-11l-8.86,16.2-19.13,2.87C322.21,221,324.36,233.53,324.77,236Z" style="fill:#263238"></path><line x1="274.13" y1="160.27" x2="314.69" y2="187.83" style="fill:#92E3A9"></line><rect x="293.91" y="149.53" width="1" height="49.03" transform="translate(-15 319.76) rotate(-55.81)" style="fill:#263238"></rect><line x1="323.75" y1="156.94" x2="326.2" y2="167.04" style="fill:#92E3A9"></line><rect x="324.48" y="156.8" width="1" height="10.39" transform="translate(-29 81.05) rotate(-13.61)" style="fill:#263238"></rect><line x1="319.79" y1="140.57" x2="322.91" y2="153.47" style="fill:#92E3A9"></line><rect x="320.85" y="140.38" width="1" height="13.28" transform="translate(-25.58 79.77) rotate(-13.61)" style="fill:#263238"></rect><line x1="290.76" y1="184.25" x2="310.21" y2="197.42" style="fill:#92E3A9"></line><rect x="299.98" y="179.08" width="1" height="23.5" transform="translate(-26.01 332.63) rotate(-55.89)" style="fill:#263238"></rect><line x1="269.6" y1="169.92" x2="287.96" y2="182.35" style="fill:#92E3A9"></line><rect x="278.28" y="165.05" width="1" height="22.17" transform="translate(-23.38 308.2) rotate(-55.89)" style="fill:#263238"></rect><line x1="262.6" y1="176.61" x2="307.65" y2="207.65" style="fill:#92E3A9"></line><rect x="284.62" y="164.78" width="1" height="54.71" transform="translate(-34.86 317.92) rotate(-55.44)" style="fill:#263238"></rect><line x1="301.24" y1="215.67" x2="305.41" y2="218.53" style="fill:#92E3A9"></line><rect x="302.83" y="214.57" width="1" height="5.06" transform="translate(-47.17 344.73) rotate(-55.6)" style="fill:#263238"></rect><line x1="269.92" y1="194.22" x2="296.92" y2="212.71" style="fill:#92E3A9"></line><rect x="282.92" y="187.1" width="1" height="32.73" transform="translate(-44.58 322.37) rotate(-55.6)" style="fill:#263238"></rect><line x1="302.1" y1="163.65" x2="316.93" y2="179.51" style="fill:#92E3A9"></line><rect x="309.01" y="160.73" width="1" height="21.71" transform="translate(-33.76 257.64) rotate(-43.08)" style="fill:#263238"></rect><line x1="293.9" y1="154.89" x2="299.76" y2="161.15" style="fill:#92E3A9"></line><rect x="296.33" y="153.73" width="1" height="8.57" transform="translate(-27.92 245.3) rotate(-43.07)" style="fill:#263238"></rect><line x1="310.21" y1="148.17" x2="322.36" y2="171.84" style="fill:#92E3A9"></line><rect x="315.79" y="146.7" width="1" height="26.6" transform="translate(-38.16 162.15) rotate(-27.18)" style="fill:#263238"></rect><polygon points="348.58 218.67 347.58 218.67 347.58 189.74 333.23 160.37 330.51 146.03 331.49 145.84 334.2 160.11 348.58 189.5 348.58 218.67" style="fill:#263238"></polygon><rect x="327.86" y="208.06" width="1" height="27.27" style="fill:#263238"></rect><rect x="338.7" y="205.86" width="1" height="27.65" style="fill:#263238"></rect><rect x="301.55" y="184.02" width="50.45" height="1" transform="translate(59.37 447.81) rotate(-74.01)" style="fill:#263238"></rect><rect x="340.48" y="169.38" width="21.82" height="1" style="fill:#263238"></rect><rect x="343.51" y="178.47" width="17.27" height="1" style="fill:#263238"></rect><rect x="318.32" y="188.32" width="30.68" height="1" transform="translate(57.33 454.57) rotate(-73.39)" style="fill:#263238"></rect><rect x="330.48" y="193.62" width="19.4" height="1" transform="translate(67.21 475) rotate(-75.53)" style="fill:#263238"></rect><line x1="341.2" y1="154.29" x2="341.55" y2="157.13" style="fill:#92E3A9"></line><rect x="340.87" y="154.28" width="1" height="2.86" transform="translate(-16.69 43.57) rotate(-7.13)" style="fill:#263238"></rect><line x1="340.59" y1="149.45" x2="340.84" y2="151.42" style="fill:#92E3A9"></line><rect x="340.21" y="149.44" width="1" height="1.98" transform="translate(-16.03 43.44) rotate(-7.13)" style="fill:#263238"></rect><polygon points="271.81 340.95 253.21 340.95 243.91 293.07 281.12 293.07 271.81 340.95" style="fill:#92E3A9"></polygon><path d="M272.23,341.45H252.8l-.08-.4-9.41-48.48h38.41Zm-18.6-1H271.4l9.11-46.88h-36Z" style="fill:#263238"></path><polygon points="271.81 360.23 253.21 360.23 243.91 408.11 281.12 408.11 271.81 360.23" style="fill:#92E3A9"></polygon><path d="M281.72,408.61H243.31l9.49-48.88h19.43l.08.4Zm-37.2-1h36l-9.11-46.88H253.63Z" style="fill:#263238"></path><rect x="254.17" y="296.11" width="1" height="42.23" transform="translate(-38.4 35.09) rotate(-7.33)" style="fill:#263238"></rect><rect x="261.52" y="298" width="1" height="41.39" style="fill:#263238"></rect><rect x="248.93" y="316.48" width="43.33" height="1" transform="translate(-82.64 538.17) rotate(-81.57)" style="fill:#263238"></rect><rect x="237.95" y="378.32" width="35.16" height="1" transform="translate(-156.66 576.05) rotate(-81.57)" style="fill:#263238"></rect><rect x="242.91" y="380.77" width="40.18" height="1" transform="matrix(0.02, -1, 1, 0.02, -124.33, 635.26)" style="fill:#263238"></rect><rect x="271.81" y="379.73" width="1" height="22.42" transform="translate(-41.08 32.09) rotate(-6.27)" style="fill:#263238"></rect><polygon points="271.81 341.2 253.21 341.2 249.18 350.52 275.85 350.52 271.81 341.2" style="fill:#92E3A9"></polygon><path d="M275.85,351H249.17a.5.5,0,0,1-.41-.23.47.47,0,0,1,0-.47l4-9.33a.51.51,0,0,1,.46-.3h18.61a.49.49,0,0,1,.45.3l4,9.33a.47.47,0,0,1,0,.47A.5.5,0,0,1,275.85,351Zm-25.91-1h25.15l-3.6-8.33h-18Z" style="fill:#263238"></path><polygon points="271.81 360.09 253.21 360.09 249.18 350.76 275.85 350.76 271.81 360.09" style="fill:#92E3A9"></polygon><path d="M271.82,360.59H253.21a.51.51,0,0,1-.46-.3l-4-9.33a.47.47,0,0,1,0-.47.5.5,0,0,1,.41-.23h26.68a.5.5,0,0,1,.42.23.47.47,0,0,1,0,.47l-4,9.33A.49.49,0,0,1,271.82,360.59Zm-18.28-1h18l3.6-8.33H249.94Z" style="fill:#263238"></path><polygon points="124.87 340.95 106.27 340.95 96.97 293.07 134.17 293.07 124.87 340.95" style="fill:#92E3A9"></polygon><path d="M125.28,341.45H105.86l-9.5-48.88h38.42Zm-18.6-1h17.78l9.1-46.88h-36Z" style="fill:#263238"></path><polygon points="124.87 360.23 106.27 360.23 96.97 408.11 134.17 408.11 124.87 360.23" style="fill:#92E3A9"></polygon><path d="M134.78,408.61H96.36l9.5-48.88h19.42Zm-37.21-1h36l-9.1-46.88H106.68Z" style="fill:#263238"></path><rect x="107.23" y="296.11" width="1" height="42.23" transform="translate(-39.6 16.34) rotate(-7.33)" style="fill:#263238"></rect><rect x="114.57" y="298" width="1" height="41.39" style="fill:#263238"></rect><rect x="101.98" y="316.48" width="43.33" height="1" transform="translate(-208.03 392.86) rotate(-81.58)" style="fill:#263238"></rect><rect x="91.01" y="378.32" width="35.16" height="1" transform="translate(-282.06 430.74) rotate(-81.58)" style="fill:#263238"></rect><rect x="95.97" y="380.77" width="40.18" height="1" transform="matrix(0.02, -1, 1, 0.02, -267.83, 488.36)" style="fill:#263238"></rect><rect x="124.86" y="379.73" width="1" height="22.42" transform="translate(-41.96 16.03) rotate(-6.27)" style="fill:#263238"></rect><polygon points="124.87 341.2 106.27 341.2 102.23 350.52 128.91 350.52 124.87 341.2" style="fill:#92E3A9"></polygon><path d="M128.91,351H102.23a.5.5,0,0,1-.42-.23.49.49,0,0,1,0-.47l4-9.33a.51.51,0,0,1,.46-.3h18.6a.51.51,0,0,1,.46.3l4,9.33a.5.5,0,0,1-.46.7ZM103,350h25.16l-3.61-8.33H106.6Z" style="fill:#263238"></path><polygon points="124.87 360.09 106.27 360.09 102.23 350.76 128.91 350.76 124.87 360.09" style="fill:#92E3A9"></polygon><path d="M124.87,360.59h-18.6a.51.51,0,0,1-.46-.3l-4-9.33a.49.49,0,0,1,0-.47.5.5,0,0,1,.42-.23h26.68a.5.5,0,0,1,.46.7l-4,9.33A.51.51,0,0,1,124.87,360.59Zm-18.27-1h17.94l3.61-8.33H103Z" style="fill:#263238"></path><rect x="124.47" y="205.59" width="99.65" height="87.64" style="fill:#92E3A9"></rect><path d="M224.62,293.73H124V205.09H224.62Zm-99.65-1h98.65V206.09H125Z" style="fill:#263238"></path><rect x="149.68" y="280.64" width="1" height="12.24" style="fill:#263238"></rect><rect x="158.78" y="273.53" width="1" height="19.35" style="fill:#263238"></rect><rect x="167.89" y="273.53" width="1" height="6.54" style="fill:#263238"></rect><rect x="167.89" y="284.34" width="1" height="8.54" style="fill:#263238"></rect><rect x="176.99" y="264.99" width="1" height="17.64" style="fill:#263238"></rect><rect x="176.99" y="286.04" width="1" height="6.83" style="fill:#263238"></rect><rect x="186.1" y="264.99" width="1" height="27.88" style="fill:#263238"></rect><rect x="195.2" y="273.53" width="1" height="19.35" style="fill:#263238"></rect><rect x="204.31" y="266.13" width="1" height="11.67" style="fill:#263238"></rect><rect x="204.31" y="281.78" width="1" height="11.1" style="fill:#263238"></rect><rect x="213.41" y="273.53" width="1" height="19.35" style="fill:#263238"></rect><rect x="164.43" y="261.87" width="59.19" height="1" style="fill:#263238"></rect><rect x="216.83" y="251.24" width="5.47" height="1" style="fill:#263238"></rect><rect x="166.43" y="251.24" width="46.07" height="1" style="fill:#263238"></rect><rect x="195.52" y="239.44" width="26.78" height="1" style="fill:#263238"></rect><rect x="166.43" y="239.44" width="24.48" height="1" style="fill:#263238"></rect><rect x="202.72" y="227.63" width="19.58" height="1" style="fill:#263238"></rect><rect x="166.43" y="227.63" width="31.1" height="1" style="fill:#263238"></rect><rect x="173.92" y="215.83" width="48.38" height="1" style="fill:#263238"></rect><polygon points="288.4 293.34 310.56 259.19 306.81 228.28 244.57 186.94 224.12 205.59 224.12 293.34 288.4 293.34" style="fill:#92E3A9"></polygon><path d="M288.67,293.84H223.62V205.37l20.91-19.06L307.28,228l0,.23,3.77,31.09-.1.15Zm-64.05-1h63.5l21.93-33.77-3.71-30.5-61.72-41-20,18.23Z" style="fill:#263238"></path><rect x="255.78" y="210.44" width="1" height="95.34" transform="translate(-107 239.98) rotate(-42.35)" style="fill:#263238"></rect><rect x="231.61" y="284.51" width="1" height="8.56" style="fill:#263238"></rect><rect x="231.61" y="232.36" width="1" height="46.8" style="fill:#263238"></rect><rect x="241.5" y="248.67" width="1" height="44.4" style="fill:#263238"></rect><rect x="251.4" y="265.79" width="1" height="27.28" style="fill:#263238"></rect><rect x="251.4" y="255.63" width="1" height="6.15" style="fill:#263238"></rect><rect x="261.29" y="266.06" width="1" height="27.01" style="fill:#263238"></rect><rect x="271.19" y="276.22" width="1" height="16.85" style="fill:#263238"></rect><rect x="290.06" y="276.22" width="1" height="5.87" transform="translate(-112.29 271.51) rotate(-42.77)" style="fill:#263238"></rect><rect x="255.37" y="198.39" width="1" height="86.51" transform="translate(-96.05 238.01) rotate(-42.77)" style="fill:#263238"></rect><rect x="279.7" y="224.96" width="1" height="54.5" transform="translate(-96.75 257.34) rotate(-42.77)" style="fill:#263238"></rect><rect x="245.19" y="195.69" width="1" height="38.43" transform="translate(-80.6 223.99) rotate(-42.77)" style="fill:#263238"></rect><rect x="271.32" y="178.77" width="1" height="97.28" transform="matrix(0.73, -0.68, 0.68, 0.73, -82.14, 245.06)" style="fill:#263238"></rect><rect x="293.86" y="214.81" width="1" height="41.63" transform="translate(-81.53 265.18) rotate(-43.17)" style="fill:#263238"></rect><rect x="267.64" y="195.68" width="1" height="24.01" transform="translate(-69.51 239.67) rotate(-43.17)" style="fill:#263238"></rect><polygon points="122.57 197.99 95.29 184.66 66.74 191.32 41.69 228.12 41.69 281.4 80.38 281.4 80.38 249.37 128.28 201.79 122.57 197.99" style="fill:#263238"></polygon><path d="M80.88,281.9H41.19V228l.08-.12,25.17-37,28.91-6.74,27.49,13.43,6.22,4.14L80.88,249.58Zm-38.69-1H79.88V249.16l47.61-47.29-5.17-3.45L95.23,185.19l-28.18,6.58-24.86,36.5Z" style="fill:#263238"></path><rect x="43.76" y="227.92" width="30.52" height="1" style="fill:#8f8f8f"></rect><rect x="48.45" y="273.92" width="1" height="5.47" style="fill:#8f8f8f"></rect><rect x="48.45" y="230.44" width="1" height="36.57" style="fill:#8f8f8f"></rect><rect x="58.81" y="232.45" width="1" height="46.36" style="fill:#8f8f8f"></rect><rect x="68.89" y="231.3" width="1" height="37.44" style="fill:#8f8f8f"></rect><rect x="68.89" y="272.19" width="1" height="4.61" style="fill:#8f8f8f"></rect><rect x="75.8" y="269.31" width="1" height="8.35" style="fill:#8f8f8f"></rect><rect x="44.65" y="212.66" width="31.63" height="1" transform="translate(-151.14 147.46) rotate(-56.92)" style="fill:#8f8f8f"></rect><rect x="60.23" y="223.89" width="3.36" height="1" transform="translate(-162.21 161.5) rotate(-58.9)" style="fill:#8f8f8f"></rect><rect x="61.24" y="213.25" width="14.17" height="1" transform="translate(-150 161.85) rotate(-58.9)" style="fill:#8f8f8f"></rect><rect x="71.54" y="193.48" width="1" height="15.96" transform="translate(-87.2 58.56) rotate(-28.42)" style="fill:#8f8f8f"></rect><rect x="72.69" y="193.51" width="25.08" height="1" transform="translate(-48.13 29.33) rotate(-15.28)" style="fill:#8f8f8f"></rect><rect x="84.75" y="197.48" width="20.49" height="1" transform="translate(-53.19 35.92) rotate(-16.81)" style="fill:#8f8f8f"></rect><rect x="77.06" y="202.18" width="4.74" height="1" transform="translate(-55.21 31.63) rotate(-16.81)" style="fill:#8f8f8f"></rect><rect x="35.92" y="406.72" width="294.7" height="36.78" style="fill:#92E3A9"></rect><path d="M331.12,444H35.42V406.22h295.7Zm-294.7-1h293.7V407.22H36.42Z" style="fill:#263238"></path><rect x="36.1" y="411.76" width="15.64" height="1" style="fill:#263238"></rect><rect x="42.27" y="415.47" width="10.29" height="1" style="fill:#263238"></rect><rect x="306.04" y="417.11" width="25.1" height="1" style="fill:#263238"></rect><rect x="317.15" y="421.23" width="8.64" height="1" style="fill:#263238"></rect><rect x="224.15" y="410.53" width="85.59" height="1" style="fill:#263238"></rect><rect x="321.67" y="435.63" width="8.64" height="1" style="fill:#263238"></rect><rect x="36.92" y="428.63" width="7.41" height="1" style="fill:#263238"></rect><circle cx="286.52" cy="446.98" r="29.12" style="fill:#263238"></circle><path d="M286.52,476.6A29.62,29.62,0,1,1,316.14,447,29.65,29.65,0,0,1,286.52,476.6Zm0-58.24A28.62,28.62,0,1,0,315.14,447,28.66,28.66,0,0,0,286.52,418.36Z" style="fill:#263238"></path><rect x="281.43" y="436.52" width="10.18" height="20.92" style="fill:#92E3A9"></rect><path d="M292.1,457.94H280.93V436H292.1Zm-10.17-1h9.17V437h-9.17Z" style="fill:#263238"></path><circle cx="216.4" cy="446.98" r="29.12" transform="translate(-69.41 40.86) rotate(-9.3)" style="fill:#263238"></circle><path d="M216.4,476.6A29.62,29.62,0,1,1,246,447,29.65,29.65,0,0,1,216.4,476.6Zm0-58.24A28.62,28.62,0,1,0,245,447,28.65,28.65,0,0,0,216.4,418.36Z" style="fill:#263238"></path><rect x="211.31" y="436.52" width="10.18" height="20.92" transform="translate(663.38 230.58) rotate(90)" style="fill:#92E3A9"></rect><path d="M227.36,452.57H205.44V441.39h21.92Zm-20.92-1h19.92v-9.18H206.44Z" style="fill:#263238"></path><circle cx="146.28" cy="446.98" r="29.12" style="fill:#263238"></circle><path d="M146.28,476.59A29.61,29.61,0,1,1,167.23,426h0a29.61,29.61,0,0,1-20.95,50.55Zm0-58.23a28.65,28.65,0,1,0,20.24,8.39h0A28.41,28.41,0,0,0,146.28,418.36Z" style="fill:#263238"></path><rect x="141.2" y="436.52" width="10.18" height="20.92" transform="translate(-273.22 234.36) rotate(-45)" style="fill:#92E3A9"></rect><path d="M150.08,458.69l-15.5-15.51,7.91-7.9,15.5,15.5ZM136,443.18l14.08,14.09,6.49-6.49-14.08-14.09Z" style="fill:#263238"></path><circle cx="76.17" cy="446.98" r="29.12" transform="translate(-171.36 67.08) rotate(-23.42)" style="fill:#263238"></circle><path d="M76.18,476.62a29.71,29.71,0,1,1,12.36-2.73A29.63,29.63,0,0,1,76.18,476.62Zm0-58.27a28.67,28.67,0,1,0,9.95,1.79A28.56,28.56,0,0,0,76.15,418.35Z" style="fill:#263238"></path><rect x="71.08" y="436.52" width="10.18" height="20.92" transform="translate(450.46 191.05) rotate(65.31)" style="fill:#92E3A9"></rect><path d="M68.55,456.64l-4.67-10.16,19.91-9.15,4.67,10.15ZM65.2,447,69,455.31,87.14,447l-3.84-8.34Z" style="fill:#263238"></path><rect x="166.43" y="215.83" width="4.03" height="1" style="fill:#263238"></rect><polygon points="133.85 293.59 164.43 262.37 164.43 205.6 116.14 195.04 75.83 208.47 72.35 258.73 96.16 293.59 133.85 293.59" style="fill:#92E3A9"></polygon><path d="M134.06,294.09H95.9L71.84,258.87v-.17l3.51-50.59,40.75-13.59.14,0,48.68,10.65v57.38l-.14.14Zm-37.64-1h37.22l30.29-30.92V206l-47.76-10.44L76.31,208.84l-3.45,49.75Z" style="fill:#263238"></path><line x1="75.83" y1="208.48" x2="164.43" y2="262.37" style="fill:#92E3A9"></line><rect x="119.63" y="183.57" width="1" height="103.71" transform="translate(-143.43 215.71) rotate(-58.69)" style="fill:#263238"></rect><line x1="72.35" y1="258.73" x2="133.85" y2="293.59" style="fill:#92E3A9"></line><rect x="102.6" y="240.82" width="1" height="70.69" transform="translate(-187.99 229.68) rotate(-60.45)" style="fill:#263238"></rect><line x1="88.46" y1="214.9" x2="126.01" y2="198.86" style="fill:#92E3A9"></line><rect x="86.82" y="206.38" width="40.83" height="1" transform="translate(-72.6 58.69) rotate(-23.11)" style="fill:#263238"></rect><line x1="135.49" y1="201.78" x2="99.76" y2="221.83" style="fill:#92E3A9"></line><rect x="97.14" y="211.3" width="40.97" height="1" transform="translate(-88.59 84.64) rotate(-29.29)" style="fill:#263238"></rect><line x1="146.06" y1="205.06" x2="112.16" y2="229.49" style="fill:#92E3A9"></line><rect x="108.22" y="216.77" width="41.79" height="1" transform="translate(-102.68 116.51) rotate(-35.78)" style="fill:#263238"></rect><line x1="154.45" y1="207.98" x2="126.01" y2="238.24" style="fill:#92E3A9"></line><rect x="119.47" y="222.61" width="41.52" height="1" transform="translate(-118.38 172.52) rotate(-46.78)" style="fill:#263238"></rect><line x1="160.28" y1="218.55" x2="138.41" y2="246.26" style="fill:#92E3A9"></line><rect x="131.69" y="231.9" width="35.3" height="1" transform="translate(-125.6 205.56) rotate(-51.7)" style="fill:#263238"></rect><line x1="162.47" y1="234.59" x2="149.71" y2="252.45" style="fill:#92E3A9"></line><rect x="145.11" y="243.02" width="21.95" height="1" transform="translate(-132.79 228.76) rotate(-54.42)" style="fill:#263238"></rect><line x1="76.43" y1="218.18" x2="150.44" y2="264.85" style="fill:#92E3A9"></line><rect x="112.93" y="197.77" width="1" height="87.49" transform="matrix(0.53, -0.85, 0.85, 0.53, -151.36, 208.65)" style="fill:#263238"></rect><line x1="76.06" y1="229.12" x2="150.07" y2="275.79" style="fill:#92E3A9"></line><rect x="112.57" y="208.71" width="1" height="87.49" transform="translate(-160.79 213.45) rotate(-57.77)" style="fill:#263238"></rect><line x1="75.7" y1="240.06" x2="136.22" y2="277.97" style="fill:#92E3A9"></line><rect x="105.46" y="223.31" width="1" height="71.42" transform="translate(-169.79 211.29) rotate(-57.93)" style="fill:#263238"></rect><line x1="75.34" y1="251" x2="137.31" y2="289.64" style="fill:#92E3A9"></line><rect x="105.82" y="233.8" width="1" height="73.04" transform="translate(-179.31 217.52) rotate(-58.06)" style="fill:#263238"></rect></g></svg>
